<svg xmlns="http://www.w3.org/2000/svg" width="1080" height="1920" viewBox="0 0 1080 1920" font-family="'Inter','Segoe UI',system-ui,sans-serif">
  <defs>
    <linearGradient id="bg" x1="0" y1="0" x2="0" y2="1">
      <stop offset="0" stop-color="#0b1020"/><stop offset="1" stop-color="#0f172a"/>
    </linearGradient>
    <radialGradient id="vig" cx="50%" cy="42%" r="75%">
      <stop offset="55%" stop-color="#000" stop-opacity="0"/><stop offset="100%" stop-color="#000" stop-opacity="0.55"/>
    </radialGradient>
    <marker id="ar" markerWidth="12" markerHeight="12" refX="6" refY="6" orient="auto">
      <path d="M2,2 L10,6 L2,10" fill="none" stroke="#475569" stroke-width="2" stroke-linecap="round" stroke-linejoin="round"/>
    </marker>
  </defs>
  <rect width="1080" height="1920" fill="url(#bg)"/><rect width="1080" height="1920" fill="url(#vig)"/>

  <text x="540" y="150" text-anchor="middle" fill="#e2e8f0" font-size="52" font-weight="800">5 · Render</text>
  <text x="540" y="196" text-anchor="middle" fill="#94a3b8" font-size="28">del HTML animado al vídeo final</text>

  <g stroke="#475569" stroke-width="2.5">
    <line x1="540" y1="410" x2="540" y2="482" marker-end="url(#ar)"/>
    <line x1="540" y1="724" x2="540" y2="796" marker-end="url(#ar)"/>
    <line x1="540" y1="900" x2="540" y2="972" marker-end="url(#ar)"/>
  </g>

  <!-- HTML + GSAP -->
  <rect x="260" y="300" width="560" height="106" rx="16" fill="#11161f" stroke="#475569" stroke-width="2"/>
  <text x="540" y="346" text-anchor="middle" fill="#e2e8f0" font-size="32" font-weight="700">HTML + GSAP</text>
  <text x="540" y="382" text-anchor="middle" fill="#94a3b8" font-size="25">composición 9:16 determinista</text>

  <!-- filmstrip -->
  <rect x="170" y="500" width="740" height="170" rx="12" fill="#11161f" stroke="#475569" stroke-width="2"/>
  <g fill="#0b1020">
    <rect x="190" y="512" width="26" height="16"/><rect x="232" y="512" width="26" height="16"/><rect x="274" y="512" width="26" height="16"/><rect x="316" y="512" width="26" height="16"/><rect x="358" y="512" width="26" height="16"/><rect x="400" y="512" width="26" height="16"/><rect x="442" y="512" width="26" height="16"/><rect x="484" y="512" width="26" height="16"/><rect x="526" y="512" width="26" height="16"/><rect x="568" y="512" width="26" height="16"/><rect x="610" y="512" width="26" height="16"/><rect x="652" y="512" width="26" height="16"/><rect x="694" y="512" width="26" height="16"/><rect x="736" y="512" width="26" height="16"/><rect x="778" y="512" width="26" height="16"/><rect x="820" y="512" width="26" height="16"/><rect x="862" y="512" width="26" height="16"/>
    <rect x="190" y="642" width="26" height="16"/><rect x="232" y="642" width="26" height="16"/><rect x="274" y="642" width="26" height="16"/><rect x="316" y="642" width="26" height="16"/><rect x="358" y="642" width="26" height="16"/><rect x="400" y="642" width="26" height="16"/><rect x="442" y="642" width="26" height="16"/><rect x="484" y="642" width="26" height="16"/><rect x="526" y="642" width="26" height="16"/><rect x="568" y="642" width="26" height="16"/><rect x="610" y="642" width="26" height="16"/><rect x="652" y="642" width="26" height="16"/><rect x="694" y="642" width="26" height="16"/><rect x="736" y="642" width="26" height="16"/><rect x="778" y="642" width="26" height="16"/><rect x="820" y="642" width="26" height="16"/><rect x="862" y="642" width="26" height="16"/>
  </g>
  <g fill="#1e3a5f">
    <rect x="210" y="540" width="150" height="90" rx="6"/>
    <rect x="380" y="540" width="150" height="90" rx="6"/>
    <rect x="550" y="540" width="150" height="90" rx="6"/>
    <rect x="720" y="540" width="150" height="90" rx="6"/>
  </g>
  <text x="540" y="712" text-anchor="middle" fill="#7dd3fc" font-size="28" font-weight="600">HyperFrames · captura frame a frame</text>

  <!-- ffmpeg mux -->
  <rect x="280" y="796" width="520" height="104" rx="16" fill="#11161f" stroke="#475569" stroke-width="2"/>
  <text x="540" y="840" text-anchor="middle" fill="#e2e8f0" font-size="30" font-weight="700">+ audio · ffmpeg mux</text>
  <text x="540" y="875" text-anchor="middle" fill="#94a3b8" font-size="24">vídeo silencioso + narración</text>

  <!-- MP4 -->
  <rect x="330" y="972" width="420" height="96" rx="48" fill="#2a0e12" stroke="#ef4444" stroke-width="2"/>
  <text x="540" y="1028" text-anchor="middle" fill="#fca5a5" font-size="30" font-weight="700">MP4 · 1080×1920</text>

  <text x="540" y="1220" text-anchor="middle" fill="#64748b" font-size="26">Composición y render, 100% locales.</text>
</svg>
